<?xml version="1.0" encoding="utf-8"?>
<!-- Generator: Adobe Illustrator 17.1.0, SVG Export Plug-In . SVG Version: 6.00 Build 0)  -->
<!DOCTYPE svg PUBLIC "-//W3C//DTD SVG 1.1//EN" "http://www.w3.org/Graphics/SVG/1.1/DTD/svg11.dtd">
<svg version="1.1" id="Layer_1" xmlns="http://www.w3.org/2000/svg" xmlns:xlink="http://www.w3.org/1999/xlink" x="0px" y="0px"
	 width="230px" height="66px" viewBox="0 0 230 66" enable-background="new 0 0 230 66" xml:space="preserve">
<g>
	<g>
		<path fill="#082744" d="M89.134,47.025V18.976h8.264c2.889,0,5.147,0.643,6.772,1.926c1.624,1.284,2.437,3.198,2.437,5.74
			c0,1.336-0.296,2.522-0.886,3.555c-0.591,1.033-1.477,1.808-2.658,2.321c1.477,0.347,2.568,1.099,3.275,2.254
			c0.706,1.156,1.059,2.511,1.059,4.064c0,2.685-0.767,4.72-2.302,6.108c-1.535,1.387-3.734,2.08-6.598,2.08H89.134z M94.624,30.823
			h3.024c1.117-0.025,1.975-0.351,2.572-0.975c0.597-0.624,0.896-1.522,0.896-2.693c0-1.314-0.309-2.276-0.925-2.888
			c-0.616-0.611-1.548-0.917-2.793-0.917h-2.774V30.823z M94.624,34.658v7.994h3.872c1.156,0,2.019-0.321,2.591-0.963
			c0.571-0.643,0.857-1.6,0.857-2.87c0-1.336-0.244-2.363-0.732-3.083c-0.488-0.719-1.272-1.078-2.35-1.078H94.624z"/>
		<path fill="#082744" d="M115.503,42.652h10.249v4.373h-15.739V18.976h5.49V42.652z"/>
		<path fill="#082744" d="M146.226,18.976v19.091c0,2.992-0.876,5.301-2.629,6.925c-1.753,1.625-4.049,2.437-6.887,2.437
			c-2.838,0-5.134-0.816-6.887-2.447c-1.753-1.63-2.63-3.936-2.63-6.915V18.976h5.471v19.091c0,1.707,0.353,2.967,1.06,3.775
			c0.706,0.809,1.701,1.214,2.986,1.214c1.323,0,2.331-0.385,3.025-1.156c0.693-0.771,1.04-2.049,1.04-3.833V18.976H146.226z"/>
		<path fill="#082744" d="M164.377,34.715h-9.42v7.938h11.077v4.373h-16.567V18.976h16.529v4.373h-11.038v6.993h9.42V34.715z"/>
		<path fill="#2362A5" d="M168.277,47.025V18.976h8.264c2.889,0,5.147,0.643,6.772,1.926c1.624,1.284,2.437,3.198,2.437,5.74
			c0,1.336-0.296,2.522-0.886,3.555c-0.591,1.033-1.477,1.808-2.658,2.321c1.477,0.347,2.568,1.099,3.275,2.254
			c0.706,1.156,1.059,2.511,1.059,4.064c0,2.685-0.767,4.72-2.302,6.108c-1.535,1.387-3.734,2.08-6.598,2.08H168.277z
			 M173.767,30.823h3.024c1.117-0.025,1.975-0.351,2.572-0.975s0.896-1.522,0.896-2.693c0-1.314-0.309-2.276-0.925-2.888
			c-0.617-0.611-1.548-0.917-2.793-0.917h-2.774V30.823z M173.767,34.658v7.994h3.872c1.156,0,2.019-0.321,2.591-0.963
			c0.571-0.643,0.857-1.6,0.857-2.87c0-1.336-0.244-2.363-0.732-3.083c-0.488-0.719-1.272-1.078-2.35-1.078H173.767z"/>
		<path fill="#2362A5" d="M207.797,36.949c0,3.289-0.893,5.856-2.678,7.706c-1.785,1.849-4.161,2.773-7.128,2.773
			c-2.966,0-5.336-0.924-7.109-2.773c-1.772-1.85-2.658-4.418-2.658-7.706v-7.86c0-3.274,0.886-5.847,2.658-7.715
			c1.773-1.868,4.136-2.804,7.089-2.804c2.954,0,5.33,0.935,7.128,2.804s2.697,4.441,2.697,7.715V36.949z M202.346,29.03
			c0-2.009-0.373-3.526-1.117-4.55c-0.745-1.024-1.83-1.537-3.256-1.537c-1.438,0-2.517,0.509-3.236,1.527s-1.079,2.537-1.079,4.559
			v7.922c0,2.035,0.366,3.561,1.098,4.579c0.732,1.018,1.811,1.526,3.236,1.526c1.413,0,2.491-0.508,3.237-1.526
			c0.745-1.018,1.117-2.543,1.117-4.579V29.03z"/>
		<path fill="#2362A5" d="M218.769,28.782h0.116l3.815-9.806h6.339l-6.801,13.909l7.263,14.14h-6.608l-3.93-10.018h-0.116
			l-3.929,10.018h-6.377l6.974-14.14l-6.801-13.909h6.3L218.769,28.782z"/>
	</g>
	<g>
		<path fill="#2362A5" d="M73.422,29.854l-9.072-4.251c-0.157-0.074-0.326-0.111-0.496-0.111c-0.169,0-0.339,0.037-0.495,0.111
			l-9.072,4.251c-0.495,0.232-0.763,0.777-0.644,1.311c0.119,0.534,0.592,0.914,1.14,0.914h3.766c0.582,0,1.055,0.472,1.055,1.055
			v11.764L34.189,56.902L8.703,44.862V24.995L32.4,36.19c1.109,0.524,2.395,0.524,3.503,0l29.551-13.96
			c1.435-0.678,2.35-2.122,2.35-3.708c0-1.586-0.915-3.031-2.349-3.708L35.904,0.854c-1.109-0.524-2.394-0.524-3.504,0L21.747,5.942
			l-0.002-0.001l-3.89,1.861l-3.722,1.778c-0.009,0.003-0.015,0.01-0.024,0.014l-4.636,2.218l0.012,0.008
			c-0.307,0.153-0.549,0.426-0.627,0.779c-0.119,0.534,0.149,1.079,0.644,1.311l6.715,3.307c0.157,0.074,0.326,0.111,0.495,0.111
			c0.141,0,0.279-0.041,0.414-0.092c0.027-0.01,0.056-0.006,0.082-0.018l6.626-3.185l10.318-4.934l19.949,9.424l-19.949,9.424
			L6.353,14.813c-1.27-0.6-2.76-0.509-3.947,0.244C1.219,15.809,0.5,17.116,0.5,18.522v28.957c0,1.77,1.121,3.278,2.692,3.853
			l29.245,13.816c0.555,0.262,1.153,0.393,1.752,0.393c0.598,0,1.197-0.131,1.752-0.393l29.551-13.96
			c1.627-0.768,2.55-2.498,2.313-4.255V33.027c0.056-0.53,0.488-0.948,1.033-0.948h4.089c0.547,0,1.021-0.38,1.14-0.914
			C74.185,30.631,73.917,30.086,73.422,29.854z"/>
	</g>
</g>
</svg>
